<svg xmlns="http://www.w3.org/2000/svg" version="1.1" xmlns:xlink="http://www.w3.org/1999/xlink" xmlns:svgjs="http://svgjs.dev/svgjs" width="1000" height="1000" viewBox="0 0 1000 1000"><rect width="1000" height="1000" fill="#ca3433"></rect><g transform="matrix(0.7,0,0,0.7,150.00040338463458,106.25)"><svg viewBox="0 0 320 360" data-background-color="#ca3433" preserveAspectRatio="xMidYMid meet" height="1125" width="1000" xmlns="http://www.w3.org/2000/svg" xmlns:xlink="http://www.w3.org/1999/xlink"><g id="tight-bounds" transform="matrix(1,0,0,1,0.00018440440442191175,0)"><svg viewBox="0 0 320 360" height="360" width="320"><g><svg></svg></g><g><svg viewBox="0 0 320 360" height="360" width="320"><g><path xmlns="http://www.w3.org/2000/svg" d="M294.684 112.125c-8.775-10.699-25.381-16.201-43-22.006-7.56-2.498-15.357-5.097-22.985-8.235-7.695-3.173-15.256-7.257-22.613-11.172-14.952-8.033-30.41-16.336-46.105-16.336-15.661 0-31.119 8.303-46.071 16.336-7.358 3.949-14.952 8.033-22.648 11.205-7.594 3.139-15.425 5.704-22.985 8.236-17.618 5.839-34.224 11.341-42.999 22.006-11.712 14.277-11.442 35.439-11.172 57.817 0.034 3.375 0.068 6.717 0.067 10.024 0 3.308-0.034 6.649-0.101 10.024-0.27 22.411-0.54 43.54 11.172 57.851 8.775 10.666 25.381 16.167 42.966 22.006 7.56 2.498 15.357 5.097 23.019 8.235 7.695 3.173 15.256 7.223 22.579 11.172 14.986 8.067 30.444 16.37 46.105 16.37 15.695 0 31.153-8.303 46.105-16.336 7.358-3.949 14.918-8.033 22.614-11.172 7.594-3.139 15.357-5.704 22.884-8.202 17.72-5.873 34.326-11.374 43.101-22.039 11.712-14.277 11.442-35.439 11.171-57.817-0.034-3.409-0.101-6.75-0.101-10.058 0-3.308 0.034-6.649 0.101-9.991 0.371-22.479 0.641-43.641-11.104-57.918zM305.552 103.215c-15.728-19.171-45.801-23.727-71.486-34.326-22.985-9.45-46.375-28.588-74.051-28.587-27.676 0-51.066 19.137-74.052 28.587-25.719 10.598-55.758 15.155-71.486 34.326-17.078 20.791-14.311 50.121-14.311 76.785 0 26.63-2.768 55.994 14.277 76.785 15.728 19.171 45.801 23.727 71.487 34.326 22.985 9.484 46.375 28.588 74.051 28.587 27.676 0 51.066-19.103 74.051-28.587 25.719-10.598 55.758-15.155 71.486-34.326 17.045-20.791 14.277-50.121 14.277-76.785 0.068-26.664 2.835-55.994-14.243-76.785zM309.872 189.923c0.304 23.221 0.574 45.059-12.083 60.483-9.518 11.577-26.664 17.281-44.822 23.289-7.56 2.498-15.29 5.063-22.715 8.134-7.493 3.071-14.952 7.088-22.175 10.969-15.458 8.303-31.355 16.842-48.062 16.842-16.707 0-32.604-8.539-47.995-16.808-7.257-3.915-14.75-7.932-22.243-11.003-7.527-3.105-15.256-5.67-22.748-8.134-18.192-6.008-35.338-11.712-44.823-23.289-12.623-15.391-12.353-37.262-12.083-60.415 0.034-3.375 0.101-6.683 0.101-9.991 0-3.308-0.034-6.615-0.067-9.991-0.304-23.154-0.574-45.025 12.083-60.415 9.518-11.577 26.664-17.247 44.822-23.289 7.527-2.498 15.256-5.063 22.749-8.134 7.493-3.105 14.986-7.122 22.242-11.003 15.391-8.269 31.322-16.842 47.995-16.842 16.673 0 32.604 8.539 47.995 16.808 7.257 3.915 14.75 7.932 22.243 11.003 7.493 3.105 15.256 5.637 22.715 8.134 18.158 6.008 35.338 11.712 44.822 23.289 12.657 15.425 12.387 37.262 12.083 60.416-0.034 3.409-0.101 6.717-0.101 9.99 0 3.308 0.034 6.615 0.067 9.957z" fill="#ffffff" fill-rule="nonzero" stroke="none" stroke-width="1" stroke-linecap="butt" stroke-linejoin="miter" stroke-miterlimit="10" stroke-dasharray="" stroke-dashoffset="0" font-family="none" font-weight="none" font-size="none" text-anchor="none" style="mix-blend-mode: normal" data-fill-palette-color="tertiary"></path></g><g transform="matrix(1,0,0,1,64,152.77262357230654)"><svg viewBox="0 0 192 54.45475285538693" height="54.45475285538693" width="192"><g><svg viewBox="0 0 275.70817494692534 78.19594024450313" height="54.45475285538693" width="192"><g><rect width="2.693686540628518" height="78.19594024450313" x="73.96295295962531" y="0" fill="#ffffff" opacity="1" stroke-width="0" stroke="transparent" fill-opacity="1" class="rect-o-0" data-fill-palette-color="primary" rx="1%" id="o-0" data-palette-color="#ffffff"></rect></g><g transform="matrix(1,0,0,1,83.70817494692534,0.1945172642898072)"><svg viewBox="0 0 192 77.80690571592352" height="77.80690571592352" width="192"><g><svg viewBox="0 0 192 77.80690571592352" height="77.80690571592352" width="192"><g><svg viewBox="0 0 192 64.6399335341157" height="64.6399335341157" width="192"><g transform="matrix(1,0,0,1,0,0)"><svg width="192" viewBox="1.589998483657837 -36.060001373291016 235.0800018310547 75.6300048828125" height="64.6399335341157" data-palette-color="#ca3433"><svg></svg><svg></svg><g class="undefined-text-0" data-fill-palette-color="quaternary" id="text-0"><path xmlns="http://www.w3.org/2000/svg" d="M24.22 0h-12.75v-3.08l3.98-0.68v-9.18l-10.93-19.04-2.93-0.47v-3.1h12.25v3.1l-4.05 0.47 7.54 13.96 0.52 0.95 0.02-0.04 0.49-0.91 7.91-13.96-4.2-0.47v-3.1h12.01v3.1l-3.1 0.47-10.74 18.67v9.55l3.98 0.68zM50.2 0.51v0c-2.3 0-4.36-0.44-6.18-1.32-1.827-0.873-3.377-2.113-4.65-3.72-1.28-1.6-2.257-3.5-2.93-5.7-0.68-2.2-1.02-4.623-1.02-7.27v0-0.52c0-2.633 0.34-5.053 1.02-7.26 0.673-2.207 1.65-4.117 2.93-5.73 1.273-1.607 2.823-2.85 4.65-3.73 1.82-0.88 3.88-1.32 6.18-1.32v0c2.42 0 4.55 0.44 6.39 1.32 1.84 0.88 3.383 2.123 4.63 3.73 1.247 1.613 2.187 3.523 2.82 5.73 0.633 2.207 0.95 4.627 0.95 7.26v0 0.52c0 2.647-0.317 5.07-0.95 7.27-0.633 2.2-1.573 4.1-2.82 5.7-1.247 1.607-2.79 2.847-4.63 3.72-1.84 0.88-3.97 1.32-6.39 1.32zM50.2-3.49v0c2.36 0 4.267-0.587 5.72-1.76 1.46-1.173 2.53-2.813 3.21-4.92 0.687-2.107 1.03-4.55 1.03-7.33v0-0.57c0-2.767-0.347-5.193-1.04-7.28-0.693-2.093-1.773-3.73-3.24-4.91-1.46-1.18-3.353-1.77-5.68-1.77v0c-2.133 0-3.94 0.593-5.42 1.78-1.487 1.187-2.61 2.827-3.37 4.92-0.767 2.093-1.15 4.513-1.15 7.26v0 0.57c0 2.767 0.383 5.203 1.15 7.31 0.76 2.107 1.883 3.75 3.37 4.93 1.48 1.18 3.287 1.77 5.42 1.77zM85.13 0.51v0c-2.44 0-4.62-0.48-6.54-1.44-1.92-0.96-3.433-2.33-4.54-4.11-1.107-1.78-1.66-3.917-1.66-6.41v0-20.31l-3.98-0.69v-3.1h12.77v3.1l-3.98 0.69v20.31c0 1.773 0.337 3.263 1.01 4.47 0.673 1.2 1.613 2.107 2.82 2.72 1.207 0.613 2.6 0.92 4.18 0.92v0c1.593 0 3.003-0.303 4.23-0.91 1.227-0.6 2.187-1.503 2.88-2.71 0.693-1.2 1.04-2.697 1.04-4.49v0-20.31l-3.98-0.69v-3.1h12.77v3.1l-3.98 0.69v20.31c0 2.573-0.54 4.75-1.62 6.53-1.087 1.78-2.607 3.13-4.56 4.05-1.953 0.92-4.24 1.38-6.86 1.38zM127.37 0h-12.77v-3.08l3.98-0.68v-28.15h-8.06l-0.71 4.93h-3.61v-8.57h29.54v8.57h-3.56l-0.73-4.93h-8.06v28.15l3.98 0.68zM156.62 0.51v0c-2.447 0-4.63-0.48-6.55-1.44-1.92-0.96-3.433-2.33-4.54-4.11-1.107-1.78-1.66-3.917-1.66-6.41v0-20.31l-3.98-0.69v-3.1h12.77v3.1l-3.98 0.69v20.31c0 1.773 0.337 3.263 1.01 4.47 0.68 1.2 1.62 2.107 2.82 2.72 1.207 0.613 2.6 0.92 4.18 0.92v0c1.593 0 3.007-0.303 4.24-0.91 1.227-0.6 2.187-1.503 2.88-2.71 0.687-1.2 1.03-2.697 1.03-4.49v0-20.31l-3.98-0.69v-3.1h12.77v3.1l-3.98 0.69v20.31c0 2.573-0.54 4.75-1.62 6.53-1.08 1.78-2.597 3.13-4.55 4.05-1.953 0.92-4.24 1.38-6.86 1.38zM194.17 0h-16.85v-3.08l3.98-0.68v-28l-3.98-0.69v-3.1h3.98 11.35c3.713 0 6.613 0.803 8.7 2.41 2.093 1.6 3.14 4.003 3.14 7.21v0c0 1.58-0.5 2.993-1.5 4.24-1 1.247-2.323 2.17-3.97 2.77v0c1.433 0.293 2.663 0.867 3.69 1.72 1.027 0.853 1.82 1.897 2.38 3.13 0.56 1.227 0.84 2.573 0.84 4.04v0c0 3.253-1.057 5.737-3.17 7.45-2.12 1.72-4.983 2.58-8.59 2.58zM186.11-16.67v12.91h8.06c2.193 0 3.897-0.54 5.11-1.62 1.213-1.087 1.82-2.623 1.82-4.61v0c0-1.393-0.223-2.587-0.67-3.58-0.447-0.993-1.13-1.76-2.05-2.3-0.92-0.533-2.08-0.8-3.48-0.8v0zM186.11-31.76v11.33h7.79c1.72 0 3.113-0.503 4.18-1.51 1.067-1 1.6-2.363 1.6-4.09v0c0-1.92-0.6-3.353-1.8-4.3-1.207-0.953-2.95-1.43-5.23-1.43v0zM236.67 0h-27.08v-3.08l3.98-0.68v-28l-3.98-0.69v-3.1h26.32v8.55h-3.85l-0.54-4.84h-13.14v11.58h13.11v3.78h-13.11v12.87h13.92l0.54-4.91h3.83z" fill="#ca3433" fill-rule="nonzero" stroke="none" stroke-width="1" stroke-linecap="butt" stroke-linejoin="miter" stroke-miterlimit="10" stroke-dasharray="" stroke-dashoffset="0" font-family="none" font-weight="none" font-size="none" text-anchor="none" style="mix-blend-mode: normal" data-fill-palette-color="quaternary" opacity="1"></path><path xmlns="http://www.w3.org/2000/svg" d="M14.75 39.57h-12.77v-3.08l3.98-0.68v-28l-3.98-0.69v-3.1h3.98 12.35c2.54 0 4.703 0.443 6.49 1.33 1.793 0.887 3.163 2.13 4.11 3.73 0.94 1.593 1.41 3.457 1.41 5.59v0c0 2.147-0.47 4.017-1.41 5.61-0.947 1.6-2.317 2.837-4.11 3.71-1.787 0.88-3.95 1.32-6.49 1.32v0h-7.54v10.5l3.98 0.68zM10.77 7.81v13.74h7.54c2.407 0 4.21-0.647 5.41-1.94 1.193-1.293 1.79-2.923 1.79-4.89v0c0-1.973-0.597-3.62-1.79-4.94-1.2-1.313-3.003-1.97-5.41-1.97v0zM59.25 39.57h-25.61v-3.08l3.98-0.68v-28l-3.98-0.69v-3.1h3.98 4.81 3.98v3.1l-3.98 0.69v28.07h12.57l0.57-5.61h3.68zM73.56 39.57h-10.18v-3.08l2.64-0.36 12.42-32.11h4.13l12.21 32.11 2.61 0.36v3.08h-10.21v-3.08l2.69-0.46-2.35-6.54h-14.23l-2.42 6.54 2.69 0.46zM80.1 11.01l-5.32 14.45h11.28l-5.23-14.45-0.29-0.81h-0.14zM117.07 39.57h-12.75v-3.08l3.98-0.68v-9.18l-10.94-19.04-2.93-0.47v-3.1h12.26v3.1l-4.05 0.47 7.54 13.96 0.51 0.95 0.03-0.04 0.49-0.91 7.91-13.96-4.2-0.47v-3.1h12.01v3.1l-3.1 0.47-10.74 18.67v9.55l3.98 0.68zM157.57 39.57h-27.08v-3.08l3.98-0.68v-28l-3.98-0.69v-3.1h26.32v8.55h-3.86l-0.53-4.84h-13.14v11.58h13.11v3.78h-13.11v12.87h13.92l0.54-4.91h3.83zM175.15 39.57h-12.77v-3.08l3.98-0.68v-28l-3.98-0.69v-3.07h15.84c2.587 0 4.773 0.387 6.56 1.16 1.78 0.773 3.133 1.89 4.06 3.35 0.927 1.467 1.39 3.26 1.39 5.38v0c0 2.08-0.45 3.827-1.35 5.24-0.907 1.42-2.19 2.49-3.85 3.21-1.66 0.727-3.627 1.113-5.9 1.16v0l-7.96 0.15v12.11l3.98 0.68zM191.77 39.57h-5.93l-7.91-17.75 4.81-0.05 6.57 14.21 2.46 0.44zM171.17 7.81v12.11h6.56c2.687 0 4.64-0.513 5.86-1.54 1.22-1.027 1.83-2.523 1.83-4.49v0c0-1.873-0.583-3.357-1.75-4.45-1.173-1.087-2.99-1.63-5.45-1.63v0z" fill="#ca3433" fill-rule="nonzero" stroke="none" stroke-width="1" stroke-linecap="butt" stroke-linejoin="miter" stroke-miterlimit="10" stroke-dasharray="" stroke-dashoffset="0" font-family="none" font-weight="none" font-size="none" text-anchor="none" style="mix-blend-mode: normal" data-fill-palette-color="quaternary" opacity="1"></path></g></svg></g></svg></g><g transform="matrix(1,0,0,1,0,71.6914689807872)"><svg viewBox="0 0 112.72319999999999 6.115436735136307" height="6.115436735136307" width="112.72319999999999"><g transform="matrix(1,0,0,1,0,0)"><svg width="112.72319999999999" viewBox="2.299999952316284 -37.54999923706055 922.4600219726562 50.04999923706055" height="6.115436735136307" data-palette-color="#ca3433"><path d="M4.95-33.95L2.3-34.25 2.35-35 14.55-35Q21.3-35 25.38-31.08 29.45-27.15 29.45-18.3L29.45-18.3Q29.45-9.55 26.6-5.2L26.6-5.2Q24.1-1.4 18.8-0.4L18.8-0.4Q16.45 0 13.3 0L13.3 0 12.35 0 2.3 0.05 2.35-0.65 4.95-1Q5.45-1.05 5.55-1.65L5.55-1.65 5.55-33.25Q5.45-33.9 4.95-33.95L4.95-33.95ZM14.3-34.25L14.3-34.25 8.95-34.25 8.95-0.75 13.05-0.75Q15.45-0.75 17.13-1.03 18.8-1.3 20.63-2.33 22.45-3.35 23.5-5.15L23.5-5.15Q26.05-9.4 26.05-18.05L26.05-18.05Q26.05-27.05 22.5-30.8L22.5-30.8Q19.25-34.25 14.3-34.25ZM44.87 0.2Q39.65 0.2 36.42-2.8 33.2-5.8 33.2-11.98 33.2-18.15 36.62-21.68 40.05-25.2 45.25-25.2 50.45-25.2 53.7-22.2 56.95-19.2 56.95-13.03 56.95-6.85 53.52-3.33 50.1 0.2 44.87 0.2ZM45.2-24.3Q41.45-24.3 38.95-21.05 36.45-17.8 36.45-12.23 36.45-6.65 38.82-3.68 41.2-0.7 44.95-0.7 48.7-0.7 51.2-3.95 53.7-7.2 53.7-12.75 53.7-18.3 51.32-21.3 48.95-24.3 45.2-24.3ZM91.4-24.95L101.4-25Q101.4-24.95 101.45-24.25L101.45-24.25 98.55-23.95 96.75-23.55 87.8 0 84.8 0 78.95-19.8 72.2 0 69.2 0 61.4-23.35Q61.1-23.9 60.65-23.95L60.65-23.95 58.05-24.2Q58-24.5 58-24.95L58-24.95 68.5-25Q68.5-24.95 68.55-24.25L68.55-24.25 64.95-24 71.7-1.6 79-24.75 80.7-25 87.05-0.8 94.9-23.2Q95.05-23.5 94.75-23.7 94.45-23.9 94.05-23.95L94.05-23.95 91.45-24.2Q91.4-24.5 91.4-24.95L91.4-24.95ZM111.09 0L101.04 0.05 101.09-0.65 103.69-1Q104.14-1.05 104.14-1.7L104.14-1.7 104.14-23.35Q104.04-23.75 103.84-23.75L103.84-23.75 100.79-23.85 100.84-24.55Q103.99-25 105.09-25L105.09-25Q107.09-25 107.34-23.25L107.34-23.25 107.39-23.25 107.39-22.2Q111.49-25 115.24-25.15L115.24-25.15Q118.89-25.15 120.79-23.7L120.79-23.7Q121.64-23.05 122.32-21.68 122.99-20.3 122.99-18.4L122.99-18.4 122.99-1 126.74-0.75Q126.74-0.7 126.69 0L126.69 0 116.69 0.05Q116.69-0.4 116.74-0.65L116.74-0.65 119.34-1Q119.74-1.05 119.74-1.7L119.74-1.7 119.74-17.15Q119.74-19.15 119.22-20.55 118.69-21.95 118.04-22.6 117.39-23.25 116.44-23.6L116.44-23.6Q115.34-24 114.14-24L114.14-24Q111.14-23.95 107.39-21.65L107.39-21.65 107.39-1 111.14-0.75Q111.14-0.7 111.09 0L111.09 0ZM140.09 0L130.04 0.05 130.09-0.65 132.69-1Q133.04-1.05 133.14-1.5L133.14-1.5 133.14-35.7Q133.14-36.25 132.84-36.25L132.84-36.25 129.79-36.35 129.84-37.05Q132.99-37.5 134.17-37.5 135.34-37.5 135.87-36.85 136.39-36.2 136.39-35.45L136.39-35.45 136.39-1 140.14-0.75Q140.14-0.7 140.09 0L140.09 0ZM156.06 0.2Q150.84 0.2 147.61-2.8 144.39-5.8 144.39-11.98 144.39-18.15 147.81-21.68 151.24-25.2 156.44-25.2 161.64-25.2 164.89-22.2 168.14-19.2 168.14-13.03 168.14-6.85 164.71-3.33 161.29 0.2 156.06 0.2ZM156.39-24.3Q152.64-24.3 150.14-21.05 147.64-17.8 147.64-12.23 147.64-6.65 150.01-3.68 152.39-0.7 156.14-0.7 159.89-0.7 162.39-3.95 164.89-7.2 164.89-12.75 164.89-18.3 162.51-21.3 160.14-24.3 156.39-24.3ZM187.89-1.9L187.89-1.9 187.74-1.9Q183.24 0.2 178.99 0.2L178.99 0.2Q172.34 0.2 171.94-5.05L171.94-5.05Q171.89-5.4 171.89-5.7L171.89-5.7Q171.89-9.55 176.94-10.85L176.94-10.85Q179.94-11.5 187.74-12.4L187.74-12.4 187.74-16.8Q187.74-18.9 187.24-20.4 186.74-21.9 186.14-22.63 185.54-23.35 184.59-23.75L184.59-23.75Q183.39-24.25 181.91-24.25 180.44-24.25 178.54-23.5L178.54-23.5Q175.79-22.35 173.64-20.6L173.64-20.6 173.44-16.7 172.49-16.45 172.49-22.5 172.99-22.7Q176.89-24.4 178.94-24.75 180.99-25.1 181.94-25.13 182.89-25.15 183.76-25.1 184.64-25.05 186.04-24.65 187.44-24.25 188.46-23.53 189.49-22.8 190.24-21.35 190.99-19.9 190.99-17.9L190.99-17.9 190.99-2.6Q190.99-1.05 191.79-1.05L191.79-1.05 194.84-0.9 194.79-0.15Q191.99 0.25 189.79 0.25L189.79 0.25Q189.19 0.2 188.54-0.38 187.89-0.95 187.89-1.9ZM179.89-0.6L179.89-0.6Q183.59-0.6 187.74-3.2L187.74-3.2 187.74-11.45Q180.24-11.2 178.31-10.58 176.39-9.95 175.66-8.63 174.94-7.3 174.94-6L174.94-6Q174.94-5.75 174.94-5.5L174.94-5.5Q175.09-2.9 176.49-1.75 177.89-0.6 179.89-0.6ZM217.48-35.45L217.48-35.45 217.48-2.6Q217.48-1.05 218.28-1.05L218.28-1.05 221.28-0.9 221.23-0.15Q218.83 0.25 216.23 0.25L216.23 0.25Q215.68 0.2 215.06-0.3 214.43-0.8 214.33-1.6L214.33-1.6Q211.48 0.2 207.73 0.2L207.73 0.2Q204.08 0.2 200.98-1.85L200.98-1.85Q199.23-3 198.16-5.48 197.08-7.95 197.08-11.5L197.08-11.5Q197.08-18.05 200.43-21.5L200.43-21.5Q203.98-25.2 208.53-25.2L208.53-25.2Q211.33-25.2 214.23-23.75L214.23-23.75 214.23-35.7Q214.23-36.25 213.93-36.25L213.93-36.25 210.88-36.35 210.93-37.05Q214.08-37.5 215.26-37.5 216.43-37.5 216.96-36.85 217.48-36.2 217.48-35.45ZM208.38-0.7L208.38-0.7Q211.43-0.7 214.23-2.05L214.23-2.05 214.23-22.95Q212.03-24.3 209.88-24.3L209.88-24.3Q205.58-24.3 202.96-21 200.33-17.7 200.33-11.55L200.33-11.55Q200.33-0.7 208.38-0.7ZM257.78 12.45L247.23 12.5 247.13 11.8 251.78 11.2Q252.13 11.15 252.23 10.5L252.23 10.5 253.88 0 252.23 0 243.88-23.25 243.83-23.3Q243.58-23.9 243.03-24L243.03-24 240.78-24.2Q240.73-24.5 240.73-24.95L240.73-24.95 251.23-25Q251.23-24.95 251.28-24.25L251.28-24.25 247.38-23.95 254.78-1.3 264.08-23.3Q264.23-23.6 263.9-23.8 263.58-24 263.23-24.05L263.23-24.05 261.03-24.2Q260.98-24.5 260.98-24.95L260.98-24.95 270.13-25Q270.13-24.95 270.18-24.25L270.18-24.25 265.73-23.8 255.23 0 253.33 11.45 257.68 11.7Q257.78 12.4 257.78 12.45L257.78 12.45ZM281.6 0.2Q276.38 0.2 273.15-2.8 269.93-5.8 269.93-11.98 269.93-18.15 273.35-21.68 276.78-25.2 281.98-25.2 287.18-25.2 290.43-22.2 293.68-19.2 293.68-13.03 293.68-6.85 290.25-3.33 286.82 0.2 281.6 0.2ZM281.93-24.3Q278.18-24.3 275.68-21.05 273.18-17.8 273.18-12.23 273.18-6.65 275.55-3.68 277.93-0.7 281.68-0.7 285.43-0.7 287.93-3.95 290.43-7.2 290.43-12.75 290.43-18.3 288.05-21.3 285.68-24.3 281.93-24.3ZM299.87-23.95L297.27-24.2 297.22-24.95 303.97-25 303.97-7.6Q303.97-5.65 304.52-4.23 305.07-2.8 305.75-2.15 306.42-1.5 307.32-1.15L307.32-1.15Q308.72-0.65 309.67-0.75L309.67-0.75Q312.72-0.8 316.62-3.9L316.62-3.9 316.62-23.25Q316.42-23.85 315.77-23.95L315.77-23.95 313.17-24.2Q313.12-24.5 313.12-24.95L313.12-24.95 319.87-25 319.87-2.3Q319.97-1.05 320.67-1.05L320.67-1.05 323.67-0.9 323.62-0.15Q321.22 0.25 318.62 0.25L318.62 0.25Q318.02 0.2 317.32-0.43 316.62-1.05 316.62-2L316.62-2 316.62-2.9Q312.07 0.15 308.02 0.15L308.02 0.15Q306.32 0.15 304.02-0.7L304.02-0.7Q302.52-1.25 301.62-2.78 300.72-4.3 300.72-6.6L300.72-6.6 300.72-23.2Q300.72-23.45 300.45-23.68 300.17-23.9 299.87-23.95L299.87-23.95ZM333.72-22.95L333.72-22.95 333.72-18.95Q337.67-24.75 341.47-24.85L341.47-24.85Q341.77-24.85 342.07-24.85L342.07-24.85 344.87-24.5 343.57-21.5Q342.62-22.45 341.12-22.45L341.12-22.45Q337.47-22.4 333.72-17.6L333.72-17.6 333.72-1 337.97-0.75Q337.97-0.7 337.92 0L337.92 0 327.42 0.05Q327.42-0.4 327.47-0.65L327.47-0.65 330.07-1Q330.47-1.05 330.47-1.7L330.47-1.7 330.47-23.4Q330.37-23.75 330.17-23.75L330.17-23.75 327.17-23.85 327.22-24.55Q329.92-25 331.32-25 332.72-25 333.22-24.35 333.72-23.7 333.72-22.95ZM375.74 0.2Q370.51 0.2 367.29-2.8 364.06-5.8 364.06-11.98 364.06-18.15 367.49-21.68 370.92-25.2 376.12-25.2 381.31-25.2 384.56-22.2 387.81-19.2 387.81-13.03 387.81-6.85 384.39-3.33 380.96 0.2 375.74 0.2ZM376.06-24.3Q372.31-24.3 369.81-21.05 367.31-17.8 367.31-12.23 367.31-6.65 369.69-3.68 372.06-0.7 375.81-0.7 379.56-0.7 382.06-3.95 384.56-7.2 384.56-12.75 384.56-18.3 382.19-21.3 379.81-24.3 376.06-24.3ZM422.26-24.95L432.26-25Q432.26-24.95 432.31-24.25L432.31-24.25 429.41-23.95 427.61-23.55 418.66 0 415.66 0 409.81-19.8 403.06 0 400.06 0 392.26-23.35Q391.96-23.9 391.51-23.95L391.51-23.95 388.91-24.2Q388.86-24.5 388.86-24.95L388.86-24.95 399.36-25Q399.36-24.95 399.41-24.25L399.41-24.25 395.81-24 402.56-1.6 409.86-24.75 411.56-25 417.91-0.8 425.76-23.2Q425.91-23.5 425.61-23.7 425.31-23.9 424.91-23.95L424.91-23.95 422.31-24.2Q422.26-24.5 422.26-24.95L422.26-24.95ZM441.96 0L431.91 0.05 431.96-0.65 434.56-1Q435.01-1.05 435.01-1.7L435.01-1.7 435.01-23.35Q434.91-23.75 434.71-23.75L434.71-23.75 431.66-23.85 431.71-24.55Q434.86-25 435.96-25L435.96-25Q437.96-25 438.21-23.25L438.21-23.25 438.26-23.25 438.26-22.2Q442.36-25 446.11-25.15L446.11-25.15Q449.76-25.15 451.66-23.7L451.66-23.7Q452.51-23.05 453.19-21.68 453.86-20.3 453.86-18.4L453.86-18.4 453.86-1 457.61-0.75Q457.61-0.7 457.56 0L457.56 0 447.56 0.05Q447.56-0.4 447.61-0.65L447.61-0.65 450.21-1Q450.61-1.05 450.61-1.7L450.61-1.7 450.61-17.15Q450.61-19.15 450.09-20.55 449.56-21.95 448.91-22.6 448.26-23.25 447.31-23.6L447.31-23.6Q446.21-24 445.01-24L445.01-24Q442.01-23.95 438.26-21.65L438.26-21.65 438.26-1 442.01-0.75Q442.01-0.7 441.96 0L441.96 0ZM491.16-24.05L491.16-24.05Q488.16-24 484.66-21.85L484.66-21.85 484.66-1 488.41-0.75Q488.41-0.7 488.36 0L488.36 0 478.36 0.05Q478.36-0.4 478.41-0.65L478.41-0.65 481-1Q481.31-1 481.41-1.45L481.41-1.45 481.41-23.4Q481.31-23.75 481.11-23.75L481.11-23.75 478.11-23.85 478.16-24.55Q480.86-25 482.25-25 483.66-25 484.16-24.35 484.66-23.7 484.66-22.95L484.66-22.95 484.66-22.35Q488.81-24.95 492.25-25.15L492.25-25.15Q497-25.15 498.71-22.45L498.71-22.45Q503.06-24.95 506.91-25.15L506.91-25.15Q510.41-25.15 512.21-23.7L512.21-23.7Q513.06-23.05 513.68-21.68 514.31-20.3 514.31-18.4L514.31-18.4 514.31-1 518.06-0.75Q518.06-0.7 518 0L518 0 508 0.05Q508-0.4 508.06-0.65L508.06-0.65 510.66-1Q510.96-1 511.06-1.45L511.06-1.45 511.06-17.15Q511.06-19.15 510.56-20.58 510.06-22 509.46-22.65 508.86-23.3 507.96-23.65L507.96-23.65Q506.96-24.05 505.81-24.05L505.81-24.05Q502.71-24 499.06-21.7L499.06-21.7Q499.71-20.3 499.71-18.4L499.71-18.4 499.71-1 503.46-0.75Q503.46-0.7 503.41 0L503.41 0 493.36 0.05 493.41-0.65 496-1Q496.36-1.05 496.46-1.5L496.46-1.5 496.46-17.2Q496.46-19.65 495.81-21.23 495.16-22.8 494.06-23.3L494.06-23.3Q492.56-24.05 491.16-24.05ZM523.7-23.95L521.1-24.2 521.05-24.95 527.8-25 527.8-7.6Q527.8-5.65 528.35-4.23 528.9-2.8 529.58-2.15 530.25-1.5 531.15-1.15L531.15-1.15Q532.55-0.65 533.5-0.75L533.5-0.75Q536.55-0.8 540.45-3.9L540.45-3.9 540.45-23.25Q540.25-23.85 539.6-23.95L539.6-23.95 537-24.2Q536.95-24.5 536.95-24.95L536.95-24.95 543.7-25 543.7-2.3Q543.8-1.05 544.5-1.05L544.5-1.05 547.5-0.9 547.45-0.15Q545.05 0.25 542.45 0.25L542.45 0.25Q541.85 0.2 541.15-0.43 540.45-1.05 540.45-2L540.45-2 540.45-2.9Q535.9 0.15 531.85 0.15L531.85 0.15Q530.15 0.15 527.85-0.7L527.85-0.7Q526.35-1.25 525.45-2.78 524.55-4.3 524.55-6.6L524.55-6.6 524.55-23.2Q524.55-23.45 524.28-23.68 524-23.9 523.7-23.95L523.7-23.95ZM558.35-0.6L558.35-0.6Q558.65-0.6 558.95-0.65L558.95-0.65Q561.55-0.7 563.3-2.27 565.05-3.85 565.05-6.9L565.05-6.9Q565.05-9.9 560.35-11.25L560.35-11.25Q558.4-11.8 556.45-12.45 554.5-13.1 553.13-14.5 551.75-15.9 551.75-18.15L551.75-18.15Q551.75-21.35 554.2-23.28 556.65-25.2 560.4-25.2L560.4-25.2Q563.2-25.2 566.05-24.2L566.05-24.2 566.95-23.85 566.95-18.1 566-17.75 565.8-22Q562.9-24.3 560.95-24.3L560.95-24.3Q558.2-24.3 556.6-22.68 555-21.05 555-18.35L555-18.35Q555-16.8 556.38-15.85 557.75-14.9 559.7-14.35 561.65-13.8 563.6-13.13 565.55-12.45 566.92-10.93 568.3-9.4 568.3-6.95L568.3-6.95Q568.3-3.65 565.83-1.73 563.35 0.2 558.8 0.2 554.25 0.2 551.25-1.95L551.25-1.95 551.25-7.7 552.15-8.05 552.4-3.8Q553.1-2.5 554.92-1.55 556.75-0.6 558.35-0.6ZM578.6-22.95L578.6-22.95 578.6-1 582.35-0.75Q582.35-0.7 582.3 0L582.3 0 572.3 0.05Q572.3-0.4 572.35-0.65L572.35-0.65 574.95-1Q575.25-1 575.35-1.45L575.35-1.45 575.35-23.4Q575.25-23.75 575.05-23.75L575.05-23.75 572.05-23.85 572.1-24.55Q574.8-25 576.2-25 577.6-25 578.1-24.35 578.6-23.7 578.6-22.95ZM576.9-31.7Q575.9-31.7 575.35-32.33 574.8-32.95 574.8-33.98 574.8-35 575.37-35.63 575.95-36.25 576.95-36.25 577.95-36.25 578.57-35.63 579.2-35 579.2-33.93 579.2-32.85 578.55-32.27 577.9-31.7 576.9-31.7ZM599.84-24.3L599.84-24.3Q595.59-24.3 592.97-20.98 590.34-17.65 590.34-11.55L590.34-11.55Q590.34-0.7 598.59-0.7L598.59-0.7Q601.84-0.7 604.14-1.33 606.44-1.95 606.64-2.1L606.64-2.1 606.99-1.55Q605.84-0.8 603.19-0.3 600.54 0.2 598.39 0.2 596.24 0.2 594.49-0.25 592.74-0.7 590.97-1.85 589.19-3 588.14-5.48 587.09-7.95 587.09-11.5L587.09-11.5Q587.09-18.05 590.44-21.4L590.44-21.4Q594.19-25.25 599.89-25.25L599.89-25.25Q601.69-25.25 603.72-24.78 605.74-24.3 606.84-23.3L606.84-23.3 606.84-16.75 605.89-16.4 605.64-21.65Q604.54-22.8 602.97-23.55 601.39-24.3 599.84-24.3ZM636.24 0L625.69 0.05 625.74-0.65 628.34-1Q628.79-1.05 628.79-1.7L628.79-1.7 628.79-24.1 626.24-24.1 626.64-24.5 628.79-24.95 628.79-31.05Q628.79-34.5 631.04-36.02 633.29-37.55 636.29-37.55L636.29-37.55Q638.29-37.55 639.69-37L639.69-37 639.54-36.65Q638.34-36.8 637.46-36.8 636.59-36.8 635.76-36.55 634.94-36.3 634.04-35.65L634.04-35.65Q632.04-34.2 632.04-29.9L632.04-29.9 632.04-25 638.09-25 638.09-24.1 632.04-24.1 632.04-1 636.29-0.75Q636.29-0.7 636.24 0L636.24 0ZM647.74-22.95L647.74-22.95 647.74-18.95Q651.69-24.75 655.49-24.85L655.49-24.85Q655.79-24.85 656.09-24.85L656.09-24.85 658.89-24.5 657.59-21.5Q656.64-22.45 655.14-22.45L655.14-22.45Q651.49-22.4 647.74-17.6L647.74-17.6 647.74-1 651.99-0.75Q651.99-0.7 651.94 0L651.94 0 641.44 0.05Q641.44-0.4 641.49-0.65L641.49-0.65 644.09-1Q644.49-1.05 644.49-1.7L644.49-1.7 644.49-23.4Q644.39-23.75 644.19-23.75L644.19-23.75 641.19-23.85 641.24-24.55Q643.94-25 645.34-25 646.74-25 647.24-24.35 647.74-23.7 647.74-22.95ZM671.81 0.2Q666.58 0.2 663.36-2.8 660.13-5.8 660.13-11.98 660.13-18.15 663.56-21.68 666.98-25.2 672.18-25.2 677.38-25.2 680.63-22.2 683.88-19.2 683.88-13.03 683.88-6.85 680.46-3.33 677.03 0.2 671.81 0.2ZM672.13-24.3Q668.38-24.3 665.88-21.05 663.38-17.8 663.38-12.23 663.38-6.65 665.76-3.68 668.13-0.7 671.88-0.7 675.63-0.7 678.13-3.95 680.63-7.2 680.63-12.75 680.63-18.3 678.26-21.3 675.88-24.3 672.13-24.3ZM699.68-24.05L699.68-24.05Q696.68-24 693.18-21.85L693.18-21.85 693.18-1 696.93-0.75Q696.93-0.7 696.88 0L696.88 0 686.88 0.05Q686.88-0.4 686.93-0.65L686.93-0.65 689.53-1Q689.83-1 689.93-1.45L689.93-1.45 689.93-23.4Q689.83-23.75 689.63-23.75L689.63-23.75 686.63-23.85 686.68-24.55Q689.38-25 690.78-25 692.18-25 692.68-24.35 693.18-23.7 693.18-22.95L693.18-22.95 693.18-22.35Q697.33-24.95 700.78-25.15L700.78-25.15Q705.53-25.15 707.23-22.45L707.23-22.45Q711.58-24.95 715.43-25.15L715.43-25.15Q718.93-25.15 720.73-23.7L720.73-23.7Q721.58-23.05 722.21-21.68 722.83-20.3 722.83-18.4L722.83-18.4 722.83-1 726.58-0.75Q726.58-0.7 726.53 0L726.53 0 716.53 0.05Q716.53-0.4 716.58-0.65L716.58-0.65 719.18-1Q719.48-1 719.58-1.45L719.58-1.45 719.58-17.15Q719.58-19.15 719.08-20.58 718.58-22 717.98-22.65 717.38-23.3 716.48-23.65L716.48-23.65Q715.48-24.05 714.33-24.05L714.33-24.05Q711.23-24 707.58-21.7L707.58-21.7Q708.23-20.3 708.23-18.4L708.23-18.4 708.23-1 711.98-0.75Q711.98-0.7 711.93 0L711.93 0 701.88 0.05 701.93-0.65 704.53-1Q704.88-1.05 704.98-1.5L704.98-1.5 704.98-17.2Q704.98-19.65 704.33-21.23 703.68-22.8 702.58-23.3L702.58-23.3Q701.08-24.05 699.68-24.05ZM766.23-34.95L775.98-35Q775.98-34.95 776.03-34.25L776.03-34.25 773.18-34 762.48-11.8 762.48-0.95 766.13-0.75Q766.13-0.7 766.08 0L766.08 0 756.08 0.05Q756.08-0.4 756.13-0.65L756.13-0.65 758.73-1Q759.23-1.05 759.33-1.65L759.33-1.65 759.33-11.8 748.08-33.75Q747.88-33.9 747.68-34L747.68-34 745.58-34.2Q745.53-34.5 745.53-34.95L745.53-34.95 755.63-35Q755.63-34.95 755.68-34.25L755.68-34.25 751.58-33.9 761.93-12.65 771.28-33.15Q771.28-33.75 770.83-33.8L770.83-33.8 766.28-34.2Q766.23-34.5 766.23-34.95L766.23-34.95ZM785.2 0.2Q779.97 0.2 776.75-2.8 773.52-5.8 773.52-11.98 773.52-18.15 776.95-21.68 780.37-25.2 785.57-25.2 790.77-25.2 794.02-22.2 797.27-19.2 797.27-13.03 797.27-6.85 793.85-3.33 790.42 0.2 785.2 0.2ZM785.52-24.3Q781.77-24.3 779.27-21.05 776.77-17.8 776.77-12.23 776.77-6.65 779.15-3.68 781.52-0.7 785.27-0.7 789.02-0.7 791.52-3.95 794.02-7.2 794.02-12.75 794.02-18.3 791.65-21.3 789.27-24.3 785.52-24.3ZM803.47-23.95L800.87-24.2 800.82-24.95 807.57-25 807.57-7.6Q807.57-5.65 808.12-4.23 808.67-2.8 809.35-2.15 810.02-1.5 810.92-1.15L810.92-1.15Q812.32-0.65 813.27-0.75L813.27-0.75Q816.32-0.8 820.22-3.9L820.22-3.9 820.22-23.25Q820.02-23.85 819.37-23.95L819.37-23.95 816.77-24.2Q816.72-24.5 816.72-24.95L816.72-24.95 823.47-25 823.47-2.3Q823.57-1.05 824.27-1.05L824.27-1.05 827.27-0.9 827.22-0.15Q824.82 0.25 822.22 0.25L822.22 0.25Q821.62 0.2 820.92-0.43 820.22-1.05 820.22-2L820.22-2 820.22-2.9Q815.67 0.15 811.62 0.15L811.62 0.15Q809.92 0.15 807.62-0.7L807.62-0.7Q806.12-1.25 805.22-2.78 804.32-4.3 804.32-6.6L804.32-6.6 804.32-23.2Q804.32-23.45 804.05-23.68 803.77-23.9 803.47-23.95L803.47-23.95ZM840.67-0.95L840.67-0.95 842.62-1.05 842.77-0.55Q842.72-0.55 842.07-0.4L842.07-0.4Q840.57-0.05 838.72-0.05L838.72-0.05Q837.02-0.15 835.62-0.63 834.22-1.1 833.02-2.63 831.82-4.15 831.82-6.55L831.82-6.55 831.82-24.1 829.27-24.1 829.67-24.5 831.87-24.95 832.27-29.75 835.07-30 835.07-25 841.12-25 841.12-24.1 835.07-24.1 835.07-7.4Q835.07-3.6 836.67-2.27 838.27-0.95 840.67-0.95ZM848.92-23.95L846.32-24.2 846.27-24.95 853.02-25 853.02-7.6Q853.02-5.65 853.57-4.23 854.12-2.8 854.79-2.15 855.47-1.5 856.37-1.15L856.37-1.15Q857.77-0.65 858.72-0.75L858.72-0.75Q861.77-0.8 865.67-3.9L865.67-3.9 865.67-23.25Q865.47-23.85 864.82-23.95L864.82-23.95 862.22-24.2Q862.17-24.5 862.17-24.95L862.17-24.95 868.92-25 868.92-2.3Q869.02-1.05 869.72-1.05L869.72-1.05 872.72-0.9 872.67-0.15Q870.27 0.25 867.67 0.25L867.67 0.25Q867.07 0.2 866.37-0.43 865.67-1.05 865.67-2L865.67-2 865.67-2.9Q861.12 0.15 857.07 0.15L857.07 0.15Q855.37 0.15 853.07-0.7L853.07-0.7Q851.57-1.25 850.67-2.78 849.77-4.3 849.77-6.6L849.77-6.6 849.77-23.2Q849.77-23.45 849.49-23.68 849.22-23.9 848.92-23.95L848.92-23.95ZM882.81-35.45L882.81-35.45 882.81-23Q885.81-25.45 889.51-25.45L889.51-25.45Q892.91-25.45 895.91-23.35L895.91-23.35Q897.51-22.2 898.49-19.75 899.46-17.3 899.46-13.8L899.46-13.8Q899.46-7.15 896.16-3.8L896.16-3.8Q892.41 0 886.66 0L886.66 0Q884.51 0 882.39-0.35 880.26-0.7 879.56-1.15L879.56-1.15 879.56-35.85Q879.46-36.25 879.26-36.25L879.26-36.25 876.21-36.35 876.26-37.05Q879.41-37.5 880.59-37.5 881.76-37.5 882.29-36.85 882.81-36.2 882.81-35.45ZM882.81-22.05L882.81-22.05 882.81-0.9Q884.16-0.45 885.96-0.45L885.96-0.45Q890.86-0.45 893.54-3.9 896.21-7.35 896.21-13.55L896.21-13.55Q896.21-20.35 893.51-22.7L893.51-22.7Q891.41-24.55 888.66-24.55 885.91-24.55 882.81-22.05ZM906.71-11.5L906.71-11.5Q906.71-0.7 915.11-0.7L915.11-0.7Q917.31-0.7 919.81-1.18 922.31-1.65 923.01-2.05L923.01-2.05 923.36-1.55Q922.21-0.8 919.59-0.3 916.96 0.2 914.79 0.2 912.61 0.2 910.89-0.25 909.16-0.7 907.36-1.85 905.56-3 904.51-5.45 903.46-7.9 903.46-11.45L903.46-11.45Q903.46-18.05 906.86-21.55L906.86-21.55Q910.41-25.2 915.11-25.2 919.81-25.2 922.29-22.6 924.76-20 924.76-15.3L924.76-15.3Q924.76-14.3 924.61-13.15L924.61-13.15 906.76-13.15Q906.71-12.6 906.71-11.5ZM921.81-15.65L921.81-15.65Q921.81-19.4 920.16-21.78 918.51-24.15 915.66-24.15L915.66-24.15Q911.96-24.15 909.41-20.9L909.41-20.9Q907.36-18.35 906.86-14.1L906.86-14.1 921.76-14.1Q921.81-14.65 921.81-15.65Z" opacity="1" transform="matrix(1,0,0,1,0,0)" fill="#ca3433" class="undefined-text-1" data-fill-palette-color="quaternary" id="text-1"></path></svg></g></svg></g></svg></g></svg></g><g transform="matrix(1,0,0,1,0,0.1945172642898072)"><svg viewBox="0 0 66.9114175129538 77.80690571592352" height="77.80690571592352" width="66.9114175129538"><g><svg xmlns="http://www.w3.org/2000/svg" xmlns:xlink="http://www.w3.org/1999/xlink" version="1.1" x="0" y="0" viewBox="5.918337821960449 0.9999868869781494 83.77965545654297 97.421875" enable-background="new 0 0 100 100" xml:space="preserve" height="77.80690571592352" width="66.9114175129538" class="icon-icon-0" data-fill-palette-color="quaternary" id="icon-0"><path d="M31.716 11.832v2.797h-0.027v59.523c-3.111-1.391-6.916-1.955-10.897-1.393-9.153 1.293-15.768 8.035-14.775 15.064 0.992 7.027 9.216 11.676 18.369 10.383 8.646-1.221 15.023-7.307 14.867-13.9h0.006V35.628c16.611-4.931 33.46-6.991 42.868-7.816v36.465c-3.111-1.393-6.917-1.957-10.897-1.395-9.153 1.293-15.768 8.037-14.775 15.064s9.216 11.678 18.369 10.385c8.645-1.223 15.023-7.309 14.866-13.902h0.008V27.293 4.753 1.202C52.01-0.73 31.716 11.832 31.716 11.832z" fill="#ca3433" data-fill-palette-color="quaternary"></path></svg></g></svg></g></svg></g></svg></g></svg></g><defs></defs></svg><rect width="320" height="360" fill="none" stroke="none" visibility="hidden"></rect></g></svg></g></svg>